<?xml version="1.0" standalone="no"?>
<!DOCTYPE svg PUBLIC "-//W3C//DTD SVG 20010904//EN"
 "http://www.w3.org/TR/2001/REC-SVG-20010904/DTD/svg10.dtd">
<svg version="1.0" xmlns="http://www.w3.org/2000/svg"
 width="4249.000000pt" height="1741.000000pt" viewBox="0 0 4249.000000 1741.000000"
 preserveAspectRatio="xMidYMid meet">

<g transform="translate(0.000000,1741.000000) scale(0.100000,-0.100000)"
fill="#fff" stroke="none">
<path d="M23880 16274 c-235 -107 -572 -259 -2130 -961 -311 -140 -578 -261
-595 -270 -26 -12 -301 -16 -2030 -29 l-2000 -14 -2860 -289 c-1573 -159
-2860 -289 -2861 -288 -1 1 126 159 282 351 284 347 309 385 263 394 -16 3
-348 -59 -3309 -613 -685 -128 -1246 -232 -1248 -230 -2 2 128 169 287 371
160 203 291 376 291 385 0 43 -21 40 -360 -66 -299 -92 -778 -240 -2520 -780
-278 -86 -1180 -366 -2005 -621 -825 -256 -1504 -469 -1508 -474 -5 -4 -7 -16
-5 -26 2 -13 253 -172 748 -476 652 -401 745 -460 743 -480 -1 -13 -151 -1094
-334 -2403 l-333 -2380 -474 -915 c-261 -503 -561 -1081 -667 -1285 -720
-1386 -680 -1305 -659 -1325 13 -13 510 -144 1639 -434 891 -228 2050 -526
2575 -661 525 -135 967 -245 981 -245 14 0 149 30 300 66 3019 722 6540 1406
9254 1798 1907 275 3367 421 4870 488 602 26 1603 14 2340 -28 2723 -155 6318
-732 10365 -1664 697 -161 1811 -433 2372 -581 l227 -59 2686 590 c1478 324
2704 590 2725 590 34 0 69 19 70 38 1 4 -304 1271 -677 2815 l-677 2808 -1125
1048 c-619 576 -1132 1055 -1139 1063 -11 13 132 186 993 1198 561 660 1005
1190 1005 1200 0 11 -8 24 -17 29 -27 14 -4377 1221 -4402 1221 -13 0 -265
-208 -698 -577 -641 -547 -679 -578 -712 -576 -20 2 -1442 192 -3161 424
l-3125 422 -1561 783 c-858 431 -1563 784 -1565 784 -2 -1 -119 -53 -259 -116z
m1818 -733 l1557 -780 3160 -426 c1738 -234 3167 -425 3175 -425 9 0 304 246
655 546 352 301 659 562 681 580 l42 34 2143 -595 c1179 -328 2155 -599 2167
-603 22 -7 -51 -96 -950 -1152 -535 -630 -985 -1160 -1000 -1178 -16 -19 -28
-42 -28 -52 0 -12 421 -411 1145 -1085 630 -586 1145 -1067 1145 -1068 1 -1
301 -1246 669 -2767 367 -1521 664 -2766 661 -2768 -4 -2 -207 71 -451 162
-244 90 -961 356 -1594 591 -632 234 -1739 645 -2460 912 -720 267 -1380 511
-1465 543 -85 32 -486 180 -890 330 l-735 273 -380 -53 c-209 -29 -858 -121
-1442 -205 -585 -83 -1063 -150 -1063 -147 0 2 144 208 320 457 176 250 328
468 338 484 37 64 231 40 -2606 333 -1423 147 -2612 268 -2642 270 -53 3 -61
0 -255 -108 -973 -540 -1589 -875 -1603 -872 -9 3 -456 289 -992 637 l-975
633 -110 -6 c-60 -3 -1185 -44 -2500 -91 -1314 -47 -2414 -89 -2444 -93 -32
-4 -58 -13 -64 -23 -8 -13 54 -115 290 -480 165 -255 297 -465 292 -467 -4 -2
-924 159 -2044 357 -1120 199 -2045 361 -2056 361 -12 0 -1632 -329 -3602
-730 l-3582 -730 -385 -154 c-212 -85 -1451 -582 -2755 -1105 -1303 -523
-2373 -950 -2377 -949 -4 2 148 302 338 668 190 366 448 863 574 1105 125 242
369 710 540 1040 l312 600 341 2424 c223 1596 336 2430 330 2439 -5 8 -330
212 -723 453 -393 241 -716 442 -717 446 -2 4 1000 318 2225 698 1225 379
2580 799 3012 932 432 134 820 255 863 268 45 13 74 19 69 12 -214 -270 -572
-731 -572 -736 0 -14 24 -31 43 -31 11 0 839 153 1841 341 1001 187 2012 376
2246 419 234 44 433 82 443 84 14 3 10 -6 -16 -37 -18 -23 -147 -181 -285
-351 -139 -170 -252 -315 -252 -322 0 -8 10 -18 23 -23 14 -5 1069 98 2913
284 l2891 293 1584 11 c871 6 1773 12 2004 13 l420 3 60 28 c59 28 412 188
1735 784 360 163 777 351 925 418 149 68 274 124 278 124 5 1 709 -350 1565
-778z m-2713 -8196 c534 -345 982 -633 996 -638 23 -9 118 41 926 486 602 333
910 497 929 497 28 0 5172 -528 5187 -533 4 -1 -148 -222 -338 -491 -190 -269
-345 -495 -345 -502 0 -6 6 -16 13 -22 9 -8 422 47 1487 199 l1474 210 351
-130 c369 -137 1887 -700 3560 -1320 550 -204 1586 -588 2302 -854 716 -265
1300 -484 1298 -486 -3 -2 -1197 -266 -2655 -586 l-2651 -582 -127 34 c-1689
449 -4232 1019 -6192 1387 -2785 523 -5050 811 -7135 908 -355 16 -1546 16
-1900 0 -1833 -86 -3738 -299 -6170 -693 -2406 -389 -5497 -1011 -7927 -1596
l-276 -66 -2499 641 c-1374 353 -2516 647 -2538 653 -34 10 -37 13 -20 19 20
8 1918 769 4261 1709 l1220 489 1840 376 c1011 206 2625 535 3585 731 l1747
356 1758 -311 c968 -172 1905 -338 2084 -369 340 -61 366 -62 358 -18 -2 12
-138 229 -301 481 -164 252 -295 461 -292 465 6 5 4935 191 4990 187 21 -1
329 -196 1000 -631z"/>
<path d="M24493 15742 c-152 -182 -188 -225 -273 -327 -47 -57 -134 -162 -195
-235 -144 -172 -260 -311 -425 -510 -275 -330 -484 -581 -608 -728 -90 -108
-108 -138 -91 -158 6 -8 17 -14 24 -14 7 0 80 32 162 71 81 39 203 98 271 130
68 32 132 59 144 59 62 0 541 -98 788 -161 830 -213 1395 -481 1701 -806 199
-211 427 -589 596 -988 61 -145 199 -512 243 -650 68 -211 173 -556 215 -704
46 -162 65 -197 95 -181 21 11 34 83 50 270 6 69 12 144 15 168 24 245 30
1060 10 1292 -84 934 -212 1344 -565 1815 -196 262 -594 664 -920 930 -47 39
-113 93 -146 121 -219 184 -952 704 -991 704 -10 0 -54 -43 -100 -98z m278
-87 c913 -619 1588 -1234 1942 -1767 236 -356 369 -816 427 -1478 40 -458 35
-1128 -10 -1575 -5 -49 -10 -101 -11 -115 0 -15 -6 -4 -15 30 -8 30 -32 109
-54 175 -21 66 -59 190 -85 275 -100 334 -239 720 -325 907 -11 24 -20 45 -20
49 0 9 -175 361 -210 424 -41 71 -138 228 -163 260 -10 14 -46 61 -78 105
-129 172 -262 297 -451 423 -361 242 -1014 482 -1728 636 -195 42 -445 86
-487 86 -36 0 -234 -86 -435 -190 -21 -10 -38 -17 -38 -14 0 2 27 37 61 77 33
40 108 130 167 200 59 71 148 177 197 237 50 59 140 167 200 240 153 183 268
321 425 510 74 89 176 211 225 270 50 60 135 163 190 229 54 67 101 121 103
121 2 0 80 -52 173 -115z"/>
<path d="M22918 15158 c-485 -350 -1117 -931 -1465 -1348 -529 -633 -695
-1039 -753 -1840 -10 -137 -14 -730 -6 -815 2 -22 7 -94 11 -160 23 -417 124
-1208 159 -1244 12 -11 61 -11 328 3 172 9 363 18 423 21 61 3 241 12 400 20
452 23 454 23 930 45 248 11 474 24 504 28 62 8 86 31 60 57 -8 8 -140 66
-294 128 l-279 113 -63 94 c-140 209 -326 535 -463 810 -235 469 -374 854
-436 1205 -26 148 -24 403 4 562 91 508 328 1072 752 1788 29 50 85 146 125
215 39 69 99 169 134 223 44 70 61 106 59 125 -5 45 -36 37 -130 -30z m-25
-130 c-17 -24 -47 -74 -68 -113 -21 -38 -82 -144 -136 -235 -327 -557 -513
-945 -654 -1366 -118 -351 -166 -689 -136 -953 56 -481 318 -1130 749 -1856
112 -189 233 -376 253 -391 8 -6 109 -48 224 -93 116 -46 213 -86 218 -90 4
-4 -156 -15 -355 -25 -200 -9 -532 -26 -738 -36 -206 -11 -438 -22 -515 -26
-77 -3 -293 -14 -480 -24 -187 -10 -343 -15 -346 -12 -13 14 -83 518 -109 792
-91 925 -55 1708 101 2179 175 533 656 1145 1439 1832 203 179 570 473 578
464 2 -2 -9 -23 -25 -47z"/>
<path d="M9070 14055 c-960 -206 -1752 -378 -1760 -383 -44 -26 -23 -50 325
-355 l340 -298 -3 -47 c-13 -171 -141 -1524 -145 -1529 -5 -5 -2070 -463
-2073 -460 -1 1 59 479 132 1062 73 583 133 1067 134 1075 0 8 158 233 350
499 193 266 350 492 350 501 0 10 -6 23 -13 29 -11 8 -448 -122 -1818 -539
-992 -303 -1811 -554 -1819 -559 -24 -13 -23 -39 2 -55 13 -8 186 -56 385
-107 283 -72 363 -96 363 -108 0 -9 -164 -1326 -364 -2927 l-363 -2910 -397
-789 c-218 -434 -395 -795 -394 -803 9 -43 24 -38 843 283 1325 519 2274 890
2535 992 135 53 253 103 263 111 10 9 17 24 15 34 -2 9 -121 141 -266 292
l-262 275 56 1078 c30 593 56 1079 57 1079 5 4 2149 474 2161 474 10 0 13 -10
10 -37 -2 -21 -40 -481 -84 -1023 -44 -542 -82 -990 -84 -995 -2 -6 -187 -264
-412 -575 -394 -545 -441 -618 -394 -614 8 1 132 38 275 82 143 44 328 99 410
122 201 55 1155 339 1170 348 7 4 300 270 652 592 351 322 653 597 670 611 28
23 32 34 41 110 6 46 52 964 102 2039 50 1075 94 1968 98 1983 l7 28 71 -68
72 -68 -85 -2060 -85 -2059 -499 -505 c-274 -277 -499 -510 -499 -516 0 -42
18 -38 801 185 l774 221 1665 158 1665 158 1050 -168 c577 -93 1059 -168 1070
-167 48 7 27 43 -196 339 -122 162 -464 616 -761 1010 -296 395 -545 720 -554
723 -21 8 -12 13 -388 -231 -270 -174 -335 -213 -365 -214 -20 0 -396 -19
-836 -43 -440 -23 -802 -41 -804 -39 -5 4 20 1196 26 1202 4 6 1151 120 1205
121 28 0 166 -60 554 -240 284 -132 522 -240 529 -240 7 0 18 7 25 15 10 12
-69 158 -470 862 -265 467 -491 857 -503 869 -23 22 -233 104 -266 104 -31 0
-38 -21 -52 -152 l-12 -126 -81 -6 c-45 -3 -246 -8 -448 -12 -306 -5 -368 -4
-368 7 2 94 30 912 32 914 4 4 1324 95 1367 95 28 0 88 -41 373 -251 186 -138
347 -253 357 -256 9 -2 23 2 29 10 8 9 34 320 74 896 61 856 62 883 44 896
-10 8 -30 12 -45 9 -22 -4 -4415 -524 -4427 -524 -2 0 -4 27 -4 60 l0 61 340
387 c354 402 371 425 305 429 -16 1 -815 -167 -1775 -372z m1690 290 c0 -3
-132 -155 -293 -338 -161 -182 -300 -343 -310 -357 -12 -17 -17 -45 -17 -92 0
-37 -4 -69 -9 -72 -5 -3 -161 -24 -348 -46 -186 -22 -344 -42 -350 -45 -7 -2
-13 -16 -13 -29 0 -20 70 -91 338 -342 l337 -317 -3 -76 c-6 -160 -182 -3891
-188 -3984 l-6 -97 -627 -573 c-344 -315 -645 -590 -668 -611 -41 -37 -70 -46
-899 -292 -471 -140 -858 -253 -861 -251 -2 2 164 235 368 518 205 283 378
523 385 534 9 14 40 353 99 1069 47 577 85 1059 83 1070 -2 14 -11 22 -28 24
-37 4 -2240 -484 -2256 -499 -10 -11 -26 -263 -68 -1084 -31 -589 -56 -1086
-56 -1106 0 -33 20 -56 256 -304 179 -188 252 -270 242 -276 -7 -4 -274 -109
-593 -234 -319 -125 -911 -357 -1315 -515 -1290 -506 -1558 -610 -1565 -610
-3 0 166 340 376 757 l382 756 368 2951 c287 2297 365 2954 356 2963 -7 6
-156 48 -332 92 -176 45 -328 85 -339 89 -12 5 528 174 1694 530 942 288 1714
521 1715 520 2 -2 -145 -207 -325 -456 l-327 -452 -10 -78 c-6 -42 -68 -542
-139 -1109 -117 -935 -127 -1034 -113 -1048 14 -14 116 7 1080 220 585 129
1071 238 1081 241 9 2 19 12 23 22 12 30 155 1623 148 1636 -5 7 -154 141
-331 297 -291 254 -321 284 -300 291 12 4 721 156 1573 338 853 182 1597 341
1655 354 116 26 130 28 130 21z m3866 -457 c-3 -35 -28 -391 -56 -793 -28
-401 -54 -747 -58 -768 l-7 -38 -320 237 c-176 130 -329 239 -340 244 -31 11
-1447 -90 -1463 -105 -11 -9 -17 -125 -29 -510 -14 -448 -14 -498 0 -512 14
-14 68 -15 496 -7 338 6 483 12 492 21 6 6 17 66 25 134 8 68 16 124 18 126 2
2 48 -13 103 -33 l100 -37 456 -801 c250 -441 454 -802 453 -804 -2 -1 -221
99 -487 222 l-484 224 -640 -63 c-554 -55 -641 -66 -652 -81 -9 -12 -13 -53
-13 -123 -1 -58 -7 -342 -14 -631 -8 -288 -12 -530 -9 -537 2 -6 11 -14 19
-17 8 -3 398 15 867 39 469 25 857 45 863 45 6 0 163 99 350 219 186 121 342
217 346 213 17 -18 1448 -1926 1446 -1928 -2 -1 -462 72 -1022 162 l-1020 163
-1645 -154 c-1525 -144 -1654 -157 -1751 -184 -58 -16 -388 -109 -733 -206
-345 -98 -630 -176 -631 -174 -2 2 200 210 450 463 249 252 456 466 459 475 2
9 41 903 84 1986 44 1084 83 2016 86 2073 l6 103 -38 37 c-37 36 -91 86 -582
548 l-245 229 145 17 c79 9 243 29 364 43 772 93 4574 543 4594 544 23 1 23
-1 17 -61z"/>
<path d="M27237 14313 c-4 -3 -7 -13 -7 -22 0 -9 180 -187 400 -395 l400 -379
0 -76 c0 -80 86 -4006 93 -4224 l4 -129 -71 -50 c-767 -538 -1127 -797 -1132
-812 -3 -10 0 -24 8 -32 14 -15 4570 -587 4595 -577 7 3 376 424 820 936 809
933 842 975 793 985 -9 1 -281 -72 -604 -163 -324 -91 -605 -165 -625 -165
-46 1 -1390 196 -1398 203 -6 7 -46 1147 -40 1153 2 2 226 -7 498 -21 l494
-24 485 -196 c606 -246 556 -228 574 -209 9 8 12 22 9 32 -25 65 -715 1519
-728 1531 -14 14 -35 9 -218 -52 -114 -37 -220 -67 -242 -67 -22 0 -265 25
-540 55 -275 30 -501 55 -502 55 -2 0 -3 216 -3 480 l0 481 33 -6 c17 -3 289
-32 602 -65 314 -33 584 -62 602 -65 22 -4 89 -55 230 -175 123 -106 206 -170
220 -170 16 0 202 176 656 620 349 341 637 626 640 633 3 8 2 19 -2 25 -4 7
-428 111 -942 233 l-934 220 -2055 219 c-1130 121 -2067 220 -2081 220 -14 0
-29 -3 -32 -7z m2139 -277 l2009 -214 900 -212 c495 -117 901 -213 903 -214 5
-5 -1183 -1168 -1199 -1174 -5 -2 -95 70 -199 160 -105 90 -203 166 -218 170
-15 3 -314 37 -664 74 -522 55 -640 65 -653 54 -13 -11 -15 -76 -15 -530 0
-402 3 -520 13 -528 6 -6 260 -37 564 -70 l551 -61 201 67 c110 36 202 64 204
62 10 -12 669 -1421 666 -1424 -2 -1 -220 85 -484 192 l-480 195 -523 25
c-392 19 -525 23 -534 14 -9 -9 -7 -149 5 -564 20 -661 23 -695 45 -702 9 -3
342 -53 739 -110 l722 -105 552 155 c303 85 553 154 554 152 2 -2 -341 -400
-761 -886 -591 -681 -770 -882 -787 -882 -21 0 -4427 547 -4453 552 -7 2 247
185 563 408 316 223 579 412 583 420 10 19 -86 4445 -97 4477 -5 12 -163 169
-353 349 -190 179 -354 334 -365 345 -11 10 -15 19 -9 19 6 0 915 -96 2020
-214z"/>
<path d="M17425 14130 c-1353 -86 -2468 -160 -2477 -164 -12 -6 -18 -25 -22
-79 -3 -40 -29 -923 -58 -1964 l-52 -1892 21 -18 c12 -10 326 -394 698 -853
372 -459 685 -838 694 -842 27 -10 1574 82 1589 94 7 6 12 19 10 29 -2 9 -185
164 -408 344 -223 180 -408 331 -413 334 -6 6 41 760 49 769 1 2 172 -124 380
-279 1181 -881 1471 -1097 1494 -1112 23 -15 111 -11 1285 53 693 38 1270 72
1281 75 24 5 37 28 28 48 -3 6 -464 365 -1025 796 l-1020 783 -256 36 -256 35
171 166 171 166 307 435 c229 325 308 443 311 470 13 108 120 2697 112 2712
-8 15 -22 18 -82 17 -40 -1 -1179 -72 -2532 -159z m2555 53 c0 -27 -25 -628
-56 -1338 l-57 -1290 -232 -330 c-405 -574 -382 -544 -582 -734 -101 -96 -183
-177 -183 -182 0 -9 29 -39 38 -39 4 0 129 -18 277 -39 l270 -38 978 -753
c538 -413 976 -754 973 -757 -4 -5 -2216 -129 -2376 -134 l-69 -2 -363 272
c-1009 754 -1528 1141 -1546 1150 -14 7 -24 7 -37 -3 -16 -12 -22 -58 -46
-397 -16 -211 -28 -404 -29 -429 l0 -45 389 -315 c214 -173 388 -317 386 -318
-3 -4 -1255 -77 -1403 -83 l-62 -3 -596 735 c-328 404 -636 783 -685 843 -80
98 -89 113 -89 150 2 226 109 3798 114 3804 5 5 4769 314 4954 321 32 1 32 1
32 -46z"/>
<path d="M17438 13051 c-434 -22 -510 -28 -524 -42 -14 -15 -21 -143 -60
-1049 -29 -702 -40 -1039 -33 -1051 5 -11 20 -19 34 -19 29 0 836 140 848 147
4 2 79 85 166 183 l159 177 6 164 c3 90 8 351 11 579 3 228 8 525 11 660 6
223 5 248 -10 263 -21 20 33 21 -608 -12z m558 -158 c-3 -71 -8 -324 -11 -563
-3 -239 -8 -541 -11 -671 l-7 -237 -145 -163 c-80 -90 -149 -165 -153 -167
-11 -4 -794 -141 -795 -139 -2 6 85 2009 88 2011 1 2 233 14 513 28 281 14
514 26 518 27 5 0 6 -56 3 -126z"/>
<path d="M33850 13176 c-635 -597 -1164 -1096 -1174 -1110 -17 -22 -17 -27 -5
-45 8 -10 194 -178 414 -373 220 -194 1055 -934 1855 -1643 800 -710 1609
-1427 1798 -1594 188 -167 341 -305 340 -307 -2 -1 -235 60 -518 136 -283 76
-960 258 -1505 405 -544 146 -991 267 -992 269 -2 1 -46 148 -98 327 -53 178
-102 330 -110 338 -10 10 -20 12 -33 5 -25 -11 -2333 -2682 -2339 -2705 -3
-10 3 -21 14 -27 12 -7 388 21 1218 90 l1200 99 370 -121 c204 -67 519 -170
700 -230 182 -59 467 -153 635 -208 368 -121 804 -264 1235 -405 2208 -725
3166 -1037 3183 -1037 52 0 116 -237 -1030 3792 -50 175 -96 324 -102 331 -8
10 -3129 2454 -3974 3113 -3 2 441 689 454 703 3 3 927 -218 930 -222 1 -1 59
-267 130 -591 71 -324 135 -596 143 -603 7 -8 23 -13 35 -11 32 5 1818 1985
1814 2012 -4 31 -35 31 -166 0 -64 -15 -126 -27 -137 -26 -11 1 -708 162
-1550 357 -841 196 -1541 358 -1555 361 -22 5 -166 -127 -1180 -1080z m2743
654 l1548 -360 86 20 c47 11 88 19 90 17 5 -6 -1676 -1867 -1686 -1867 -4 0
-63 257 -132 571 -68 314 -129 578 -135 586 -12 17 -977 255 -999 247 -15 -6
-495 -735 -501 -762 -2 -9 -1 -22 3 -28 5 -6 818 -645 1808 -1419 990 -775
1886 -1475 1990 -1557 105 -82 193 -157 197 -166 4 -9 123 -422 263 -917 301
-1060 498 -1751 716 -2519 88 -307 158 -560 157 -561 -2 -1 -30 6 -63 17 -76
25 -2395 785 -2802 919 -659 216 -942 309 -1798 589 -489 160 -1008 330 -1152
378 l-262 86 -1162 -97 c-640 -53 -1165 -95 -1167 -92 -4 3 2210 2569 2226
2579 4 2 47 -133 97 -301 49 -167 94 -311 100 -320 14 -18 3145 -864 3185
-860 72 7 67 11 -1047 999 -593 525 -1602 1420 -2243 1988 -641 568 -1165
1037 -1165 1043 0 15 2268 2146 2285 2146 8 1 712 -161 1563 -359z"/>
<path d="M24003 12998 c-18 -23 -708 -1372 -711 -1390 -4 -22 768 -1486 787
-1493 8 -3 20 0 27 7 7 7 169 345 359 752 250 532 346 746 343 765 -3 23 -683
1249 -742 1338 -22 34 -47 42 -63 21z m387 -720 c195 -347 357 -636 359 -640
3 -8 -118 -269 -574 -1236 -45 -96 -85 -174 -90 -174 -4 0 -171 310 -370 688
l-363 687 117 226 c438 854 556 1081 561 1081 3 0 165 -284 360 -632z"/>
<path d="M24020 12603 c1 -115 2 -373 1 -575 l-1 -368 -37 0 c-44 0 -536 -60
-542 -66 -13 -13 18 -14 96 -5 48 7 177 14 285 18 l197 6 5 -24 c2 -13 12
-274 21 -579 20 -676 17 -633 32 -637 9 -3 12 137 10 619 l-2 623 283 -2 c155
-1 282 2 282 6 0 7 -409 42 -495 41 -27 0 -55 4 -61 8 -11 7 -32 404 -51 955
-3 105 -10 187 -15 187 -6 0 -9 -84 -8 -207z"/>
<path d="M26222 11377 c-11 -13 -22 -127 -42 -412 -6 -88 -13 -173 -15 -190
-9 -60 -400 -502 -707 -800 -476 -463 -896 -757 -1243 -870 -486 -160 -1283
-124 -2221 100 -78 19 -199 46 -270 60 -71 15 -177 40 -236 57 -123 34 -161
34 -166 0 -4 -27 17 -46 187 -166 608 -428 1321 -816 1848 -1005 407 -146 697
-199 1017 -188 561 19 1277 224 2188 626 242 107 610 292 622 312 7 12 -10 68
-62 205 -39 104 -106 286 -150 404 -115 310 -197 529 -307 825 -53 143 -114
307 -135 365 -21 58 -56 152 -78 210 -22 58 -68 179 -102 270 -33 90 -67 175
-76 187 -16 26 -36 29 -52 10z m87 -267 c22 -58 83 -222 136 -365 53 -143 132
-354 175 -470 43 -115 108 -291 145 -390 67 -181 252 -677 318 -855 33 -88 34
-96 19 -108 -31 -25 -327 -169 -552 -269 -25 -11 -81 -36 -125 -56 -125 -55
-476 -194 -630 -249 -451 -161 -849 -263 -1189 -305 -193 -24 -467 -22 -631 5
-488 79 -1140 355 -1860 787 -141 84 -621 401 -630 415 -3 5 9 4 27 -1 18 -5
94 -23 168 -39 74 -16 246 -54 382 -84 224 -51 626 -124 768 -140 307 -35 365
-39 620 -40 401 -1 626 33 882 134 227 90 519 277 788 504 337 284 665 616
982 991 122 145 124 150 131 257 13 178 31 388 33 385 1 -1 21 -49 43 -107z"/>
</g>
</svg>
